<svg xmlns="http://www.w3.org/2000/svg" xmlns:svg="http://www.w3.org/2000/svg" id="svg4539" width="16" height="9" version="1.1" viewBox="0 0 4.233 2.381"><metadata id="metadata4536"/><g id="layer1" transform="translate(0,-294.61873)"><rect style="opacity:1;fill:#016464;fill-opacity:1;fill-rule:nonzero;stroke:none;stroke-width:.26458332;stroke-linecap:round;stroke-linejoin:round;stroke-miterlimit:4;stroke-dasharray:none;stroke-dashoffset:0;stroke-opacity:1" id="rect5088" width="4.233" height="2.381" x="0" y="294.619"/><path style="opacity:1;fill:#fff;fill-opacity:1;fill-rule:nonzero;stroke:none;stroke-width:.26458332;stroke-linecap:round;stroke-linejoin:round;stroke-miterlimit:4;stroke-dasharray:none;stroke-dashoffset:0;stroke-opacity:1" id="path5090" d="m 1.1679274,295.96434 -0.7483571,0 0.28063654,0.28064 -0.37417736,0.37417 0.18708631,0.18709 0.37417737,-0.37418 0.28063654,0.28064 z"/><path style="opacity:1;fill:#fff;fill-opacity:1;fill-rule:nonzero;stroke:none;stroke-width:.26458332;stroke-linecap:round;stroke-linejoin:round;stroke-miterlimit:4;stroke-dasharray:none;stroke-dashoffset:0;stroke-opacity:1" id="path5090-5" d="m 3.1976976,295.65437 0.7483571,0 -0.2806365,-0.28064 0.3741773,-0.37417 -0.1870863,-0.18709 -0.3741774,0.37418 -0.2806365,-0.28064 z"/><path style="opacity:1;fill:#fff;fill-opacity:1;fill-rule:nonzero;stroke:none;stroke-width:.26458332;stroke-linecap:round;stroke-linejoin:round;stroke-miterlimit:4;stroke-dasharray:none;stroke-dashoffset:0;stroke-opacity:1" id="path5090-0" d="m 1.8520833,295.94165 -2.3e-6,0.74836 0.2806365,-0.28064 0.3741774,0.37418 0.1870863,-0.18709 -0.3741773,-0.37417 0.2806365,-0.28064 z"/><path style="opacity:1;fill:#fff;fill-opacity:1;fill-rule:nonzero;stroke:none;stroke-width:.26458332;stroke-linecap:round;stroke-linejoin:round;stroke-miterlimit:4;stroke-dasharray:none;stroke-dashoffset:0;stroke-opacity:1" id="path5090-6" d="m 2.778125,295.28019 -0.5291667,-0.52917 v 0.39688 H 1.7197916 v 0.26458 h 0.5291667 v 0.39688 z"/><path style="opacity:1;fill:#fff;fill-opacity:1;fill-rule:nonzero;stroke:none;stroke-width:.26458332;stroke-linecap:round;stroke-linejoin:round;stroke-miterlimit:4;stroke-dasharray:none;stroke-dashoffset:0;stroke-opacity:1" id="path5090-4" d="m 3.0427083,296.33852 0.5291667,0.52917 v -0.39688 h 0.5291667 v -0.26458 H 3.571875 v -0.39688 z"/><path style="opacity:1;fill:#fff;fill-opacity:1;fill-rule:nonzero;stroke:none;stroke-width:.26458332;stroke-linecap:round;stroke-linejoin:round;stroke-miterlimit:4;stroke-dasharray:none;stroke-dashoffset:0;stroke-opacity:1" id="path5090-62" d="M 0.79375167,295.80936 1.3229216,295.28019 H 0.92604167 v -0.52917 H 0.66146166 v 0.52917 h -0.39688 z"/></g></svg>