<svg xmlns="http://www.w3.org/2000/svg" xmlns:svg="http://www.w3.org/2000/svg" xmlns:xlink="http://www.w3.org/1999/xlink" id="svg2" width="48" height="48" version="1.1" viewBox="0 0 48 48"><defs id="defs4"><linearGradient id="linearGradient4167"><stop style="stop-color:#006400;stop-opacity:1" id="stop4169" offset="0"/><stop style="stop-color:#00c800;stop-opacity:1" id="stop4171" offset="1"/></linearGradient><linearGradient id="linearGradient4173" x1="0" x2="48" y1="1052.362" y2="1004.362" gradientUnits="userSpaceOnUse" xlink:href="#linearGradient4167"/></defs><metadata id="metadata7"/><g id="layer1" transform="translate(0,-1004.3622)"><g id="g8256"><circle id="path4142" cx="24" cy="1028.362" r="23" style="opacity:1;fill:url(#linearGradient4173);fill-opacity:1;fill-rule:nonzero;stroke:none;stroke-width:6;stroke-linecap:butt;stroke-linejoin:miter;stroke-miterlimit:4;stroke-dasharray:none;stroke-opacity:1"/><rect id="rect4180-5-8" width="16" height="16" x="-729.02" y="730.961" rx="1" ry="1" transform="matrix(0.70710678,-0.70710678,0.70710678,0.70710678,0,0)" style="opacity:1;fill:#fff;fill-opacity:.12156863;fill-rule:nonzero;stroke:none;stroke-width:6;stroke-linecap:butt;stroke-linejoin:miter;stroke-miterlimit:4;stroke-dasharray:none;stroke-opacity:1"/><rect id="rect4180" width="16" height="16" x="-507.932" y="892.052" rx="1" ry="1" transform="matrix(0.8660254,-0.5,0.5,0.8660254,0,0)" style="opacity:1;fill:#fff;fill-opacity:.24705882;fill-rule:nonzero;stroke:none;stroke-width:6;stroke-linecap:butt;stroke-linejoin:miter;stroke-miterlimit:4;stroke-dasharray:none;stroke-opacity:1"/><rect id="rect4180-1" width="16" height="16" x="-252.285" y="989.468" rx="1" ry="1" transform="matrix(0.96592583,-0.25881905,0.25881905,0.96592583,0,0)" style="opacity:1;fill:#fff;fill-opacity:.49803922;fill-rule:nonzero;stroke:none;stroke-width:6;stroke-linecap:butt;stroke-linejoin:miter;stroke-miterlimit:4;stroke-dasharray:none;stroke-opacity:1"/><rect id="rect4180-5" width="16" height="16" x="20" y="1016.362" rx="1" ry="1" style="opacity:1;fill:#fff;fill-opacity:1;fill-rule:nonzero;stroke:none;stroke-width:6;stroke-linecap:butt;stroke-linejoin:miter;stroke-miterlimit:4;stroke-dasharray:none;stroke-opacity:1"/><path id="path4205" d="m 38.5,1021.8622 2.5,2.5 -2.5,2.5" style="opacity:1;fill:none;fill-opacity:1;fill-rule:nonzero;stroke:#fff;stroke-width:1;stroke-linecap:butt;stroke-linejoin:miter;stroke-miterlimit:4;stroke-dasharray:none;stroke-opacity:1"/><path id="rect8234" d="m 21,1016.3622 c -0.554,0 -1,0.446 -1,1 l 0,1 1,0 14,0 1,0 0,-1 c 0,-0.554 -0.446,-1 -1,-1 l -14,0 z" style="opacity:1;fill:#000;fill-opacity:.49803922;fill-rule:nonzero;stroke:none;stroke-width:1;stroke-linecap:butt;stroke-linejoin:miter;stroke-miterlimit:4;stroke-dasharray:none;stroke-opacity:1"/><circle id="path8239" cx="35" cy="1017.362" r=".5" style="opacity:1;fill:#000;fill-opacity:.49803922;fill-rule:nonzero;stroke:none;stroke-width:1;stroke-linecap:butt;stroke-linejoin:miter;stroke-miterlimit:4;stroke-dasharray:none;stroke-opacity:1"/><circle id="path8250" cx="33.5" cy="1017.362" r=".5" style="opacity:1;fill:#000;fill-opacity:.49803922;fill-rule:nonzero;stroke:none;stroke-width:1;stroke-linecap:butt;stroke-linejoin:miter;stroke-miterlimit:4;stroke-dasharray:none;stroke-opacity:1"/><circle id="path8252" cx="32" cy="1017.362" r=".5" style="opacity:1;fill:#000;fill-opacity:.49803922;fill-rule:nonzero;stroke:none;stroke-width:1;stroke-linecap:butt;stroke-linejoin:miter;stroke-miterlimit:4;stroke-dasharray:none;stroke-opacity:1"/></g></g></svg>