<svg xmlns="http://www.w3.org/2000/svg" xmlns:osb="http://www.openswatchbook.org/uri/2009/osb" xmlns:svg="http://www.w3.org/2000/svg" xmlns:xlink="http://www.w3.org/1999/xlink" id="svg4207" width="48" height="48" version="1.1" viewBox="0 0 48 48"><defs id="defs4209"><linearGradient id="linearGradient5737" osb:paint="solid"><stop style="stop-color:#000;stop-opacity:1" id="stop5739" offset="0"/></linearGradient><linearGradient id="linearGradient4763"><stop style="stop-color:#646400;stop-opacity:1" id="stop4765" offset="0"/><stop style="stop-color:#c8c800;stop-opacity:1" id="stop4767" offset="1"/></linearGradient><linearGradient id="linearGradient4769" x1="3" x2="45" y1="1049.362" y2="1007.362" gradientTransform="matrix(1.047619,0,0,1.047619,-1.1428552,-1053.3318)" gradientUnits="userSpaceOnUse" xlink:href="#linearGradient4763"/><filter style="color-interpolation-filters:sRGB" id="filter4279"><feGaussianBlur id="feGaussianBlur4285" stdDeviation="6"/></filter></defs><metadata id="metadata4212"/><g id="layer1" transform="translate(0,-1004.3622)"><path style="opacity:1;fill:url(#linearGradient4769);fill-opacity:1;stroke:none;stroke-width:1;stroke-linecap:round;stroke-linejoin:miter;stroke-miterlimit:4;stroke-dasharray:none;stroke-opacity:1" id="path4761" d="M 24 2 A 22 22 0 0 0 19.328125 2.515625 A 12 12 0 0 1 24 12 A 12 12 0 0 1 12 24 A 12 12 0 0 1 2.5234375 19.353516 A 22 22 0 0 0 2 24 A 22 22 0 0 0 2.0078125 24.177734 C 5.4851324 24.785533 7.7203862 26.892261 9.4140625 28.585938 C 11.414062 30.585938 12.666667 32 16 32 C 19.333333 32 20.585938 30.585938 22.585938 28.585938 C 24.585938 26.585938 27.333333 24 32 24 C 36.666667 24 39.414062 26.585938 41.414062 28.585938 C 42.579808 29.751682 43.500807 30.706925 44.71875 31.310547 A 22 22 0 0 0 46 24 A 22 22 0 0 0 24 2 z M 32 28 C 28.666667 28 27.414062 29.416016 25.414062 31.416016 C 23.414062 33.416016 20.666667 36 16 36 C 11.333333 36 8.5859375 33.416016 6.5859375 31.416016 C 5.1821671 30.012245 4.1335587 28.907868 2.4882812 28.367188 A 22 22 0 0 0 24 46 A 22 22 0 0 0 35.589844 42.648438 A 5 5 0 0 1 34 39 A 5 5 0 0 1 39 34 A 5 5 0 0 1 42.652344 35.591797 A 22 22 0 0 0 43.064453 34.855469 C 41.172557 33.92066 39.746101 32.576179 38.585938 31.416016 C 36.585938 29.416016 35.333333 28 32 28 z" transform="translate(0,1004.3622)"/><g id="g4157"><path id="path4771" d="m 54,1025.3622 -3,3 3,3 0,0 0,0" style="fill:none;fill-rule:evenodd;stroke:#000;stroke-width:1px;stroke-linecap:butt;stroke-linejoin:miter;stroke-opacity:1"/><path id="path4773" d="m 51,1028.3622 6,0" style="fill:none;fill-rule:evenodd;stroke:#000;stroke-width:1px;stroke-linecap:butt;stroke-linejoin:miter;stroke-opacity:1"/></g><g id="g4153"><path id="path4801" d="m 21,998.3622 3,3 3,-3" style="fill:none;fill-rule:evenodd;stroke:#000;stroke-width:1px;stroke-linecap:butt;stroke-linejoin:miter;stroke-opacity:1"/><path id="path4803" d="m 24,1001.3622 0,-6" style="fill:none;fill-rule:evenodd;stroke:#000;stroke-width:1px;stroke-linecap:butt;stroke-linejoin:miter;stroke-opacity:1"/></g></g></svg>