<svg xmlns="http://www.w3.org/2000/svg" xmlns:svg="http://www.w3.org/2000/svg" id="svg2" width="16" height="16" version="1.1" viewBox="0 0 16 16"><metadata id="metadata7"/><g id="layer1" transform="translate(0,-1036.3622)"><path style="opacity:1;fill:#fff;fill-opacity:1;fill-rule:nonzero;stroke:none;stroke-width:1;stroke-linecap:butt;stroke-linejoin:round;stroke-miterlimit:4;stroke-dasharray:none;stroke-opacity:1" id="path4163" d="M 6 2 L 3 9 L 6 9 L 6 14 L 6.7207031 12.318359 C 6.5904553 11.898271 6.5 11.462067 6.5 11 C 6.5 9.2498471 7.516099 7.743632 8.9804688 7 L 6 7 L 6 2 z M 11 7 A 4 4 0 0 0 7 11 A 4 4 0 0 0 11 15 A 4 4 0 0 0 15 11 A 4 4 0 0 0 11 7 z M 13.646484 8.6464844 L 14.353516 9.3535156 L 10.353516 13.353516 A 0.50005 0.50005 0 0 1 9.6464844 13.353516 L 7.6464844 11.353516 L 8.3535156 10.646484 L 10 12.292969 L 13.646484 8.6464844 z" transform="translate(0,1036.3622)"/></g></svg>