<svg xmlns="http://www.w3.org/2000/svg" xmlns:svg="http://www.w3.org/2000/svg" id="svg2" width="16" height="16" version="1.1" viewBox="0 0 16 16"><metadata id="metadata7"/><g id="layer1" transform="translate(0,-1036.3622)"><path style="color:#000;font-style:normal;font-variant:normal;font-weight:400;font-stretch:normal;font-size:medium;line-height:normal;font-family:sans-serif;text-indent:0;text-align:start;text-decoration:none;text-decoration-line:none;text-decoration-style:solid;text-decoration-color:#000;letter-spacing:normal;word-spacing:normal;text-transform:none;direction:ltr;block-progression:tb;writing-mode:lr-tb;baseline-shift:baseline;text-anchor:start;white-space:normal;clip-rule:nonzero;display:inline;overflow:visible;visibility:visible;opacity:1;isolation:auto;mix-blend-mode:normal;color-interpolation:sRGB;color-interpolation-filters:linearRGB;solid-color:#000;solid-opacity:1;fill:#fff;fill-opacity:1;fill-rule:nonzero;stroke:none;stroke-width:1;stroke-linecap:butt;stroke-linejoin:miter;stroke-miterlimit:4;stroke-dasharray:none;stroke-dashoffset:0;stroke-opacity:1;color-rendering:auto;image-rendering:auto;shape-rendering:auto;text-rendering:auto;enable-background:accumulate" id="rect4704" d="M 3 1 L 3 2 L 1 2 L 1 2.5 L 1 15 L 9 15 L 9 2 L 7 2 L 7 1 L 3 1 z M 12.5 1 L 11 4.5 L 12.5 4.5 L 12.5 7 L 14 3.5 L 12.5 3.5 L 12.5 1 z M 2 3 L 8 3 L 8 14 L 2 14 L 2 3 z M 11 9 L 11 10 L 11 11 L 11 12 L 12 12 L 12 16 L 13 16 L 13 12 L 14 12 L 14 11 L 14 10 L 14 9 L 13 9 L 13 10 L 12 10 L 12 9 L 11 9 z M 3 12 L 3 13 L 7 13 L 7 12 L 3 12 z" transform="translate(0,1036.3622)"/></g></svg>